# xmcd
#
# Track frame offsets:
# 150
# 4875
# 20020
# 38382
# 55982
# 74525
# 91465
# 111417
# 133542
# 153747
# 168017
#
# Disc length: 2533 seconds
#
#
# Revision: 4
# Processed by: cddbd v1.5.2PL0 Copyright (c) Steve Scherf et al.
# Submitted via: FreeRIP 2.951 
#
DISCID=8e09e30b
DTITLE=Kool G Rap - 4, 5, 6
DYEAR=1995
DGENRE=Hip-Hop
TTITLE0=Intro
TTITLE1=4, 5, 6
TTITLE2=It's a Shame
TTITLE3=Take 'Em to War Ft. B1 and Grimm
TTITLE4=Executioner Style
TTITLE5=For Da Brothaz
TTITLE6=Blowin' Up in the World
TTITLE7=Fast Life Ft. Nas
TTITLE8=Ghetto Knows
TTITLE9=It's a Shame (Da Butcher's Mix)
TTITLE10=Money on My Brain Ft. B1 and Grimm
EXTD=
EXTT0=
EXTT1=
EXTT2=
EXTT3=
EXTT4=
EXTT5=
EXTT6=
EXTT7=
EXTT8=
EXTT9=
EXTT10=
PLAYORDER=
